<?xml version="1.0" encoding="UTF-8" standalone="no"?>
<!-- Created with Inkscape (http://www.inkscape.org/) -->

<svg
   width="210mm"
   height="297mm"
   viewBox="0 0 210 297"
   version="1.1"
   id="svg1"
   xml:space="preserve"
   inkscape:version="1.3.2 (091e20e, 2023-11-25, custom)"
   sodipodi:docname="logo_varis.svg"
   xmlns:inkscape="http://www.inkscape.org/namespaces/inkscape"
   xmlns:sodipodi="http://sodipodi.sourceforge.net/DTD/sodipodi-0.dtd"
   xmlns="http://www.w3.org/2000/svg"
   xmlns:svg="http://www.w3.org/2000/svg"><sodipodi:namedview
     id="namedview1"
     pagecolor="#ffffff"
     bordercolor="#000000"
     borderopacity="0.25"
     inkscape:showpageshadow="2"
     inkscape:pageopacity="0.0"
     inkscape:pagecheckerboard="0"
     inkscape:deskcolor="#d1d1d1"
     inkscape:document-units="mm"
     inkscape:zoom="0.73139029"
     inkscape:cx="397.18876"
     inkscape:cy="561.25984"
     inkscape:window-width="1920"
     inkscape:window-height="1017"
     inkscape:window-x="-8"
     inkscape:window-y="-8"
     inkscape:window-maximized="1"
     inkscape:current-layer="layer1" /><defs
     id="defs1"><inkscape:path-effect
       effect="fillet_chamfer"
       id="path-effect5"
       is_visible="true"
       lpeversion="1"
       nodesatellites_param="F,0,0,1,0,14.422008,0,1 @ F,0,0,1,0,0,0,1 @ F,0,0,1,0,0,0,1 @ F,0,0,1,0,0,0,1"
       radius="0"
       unit="px"
       method="auto"
       mode="F"
       chamfer_steps="1"
       flexible="false"
       use_knot_distance="true"
       apply_no_radius="true"
       apply_with_radius="true"
       only_selected="false"
       hide_knots="false" /></defs><g
     inkscape:label="SlÄnis 1"
     inkscape:groupmode="layer"
     id="layer1"><text
       xml:space="preserve"
       style="font-weight:bold;font-stretch:condensed;font-size:3.175px;font-family:Bahnschrift;-inkscape-font-specification:'Bahnschrift Bold Condensed';opacity:1;fill:#ec5d1d;fill-opacity:1;stroke-width:4"
       x="28.578564"
       y="67.286232"
       id="text5"><tspan
         sodipodi:role="line"
         id="tspan5"
         style="stroke-width:4"
         x="28.578564"
         y="67.286232" /></text><g
       id="g30"
       transform="translate(8.682095,-12.661389)"><path
         sodipodi:type="star"
         style="opacity:1;fill:#eb5e1d;fill-opacity:1;stroke-width:4"
         id="path1"
         inkscape:flatsided="false"
         sodipodi:sides="5"
         sodipodi:cx="45.647625"
         sodipodi:cy="21.98768"
         sodipodi:r1="47.709084"
         sodipodi:r2="49.718742"
         sodipodi:arg1="3.0313283"
         sodipodi:arg2="3.6332451"
         inkscape:rounded="0.38"
         inkscape:randomized="0"
         d="M -1.7717234,27.237638 C -3.2703786,16.341196 -3.628866,8.0719996 1.8178702,-1.4837052 7.7238204,-11.845051 15.266541,-16.291927 26.001234,-21.488474 c 9.900023,-4.792491 17.653717,-7.688755 28.424866,-5.461476 11.679264,2.41506 18.239324,8.214453 26.498736,16.817932 7.617206,7.9345195 12.76774,14.4137261 13.97794,25.345965 1.312232,11.853935 -2.176149,19.885033 -7.806245,30.398822 -5.19233,9.696295 -9.762819,16.596928 -19.786024,21.126145 -10.86826,4.911074 -19.584257,4.075173 -31.32326,1.969573 C 25.161004,66.766607 17.185753,64.552226 9.7808717,56.419197 1.7516854,47.600473 -0.14671666,39.052759 -1.7717234,27.237638 Z"
         inkscape:transform-center-x="3.2307803"
         inkscape:transform-center-y="-3.9722351"
         transform="matrix(0.7115551,-0.19985467,0.22056116,0.74689854,60.397235,166.17117)" /><path
         id="path2"
         style="opacity:1;fill:#ec5d1d;stroke-width:4"
         d="m 109.2497,127.69914 c 0,22.97599 -5.91164,41.60171 -13.204023,41.60171 -7.29238,0 -13.204022,-18.62572 -13.204021,-41.60171 10e-7,-22.97599 -2.845935,-40.837943 12.842267,-40.878192 15.807407,-0.04055 13.565777,17.902202 13.565777,40.878192 z"
         sodipodi:nodetypes="sssss" /><path
         id="ellipse3"
         style="opacity:1;fill:#ec5d1d;stroke-width:4"
         inkscape:transform-center-x="19.579306"
         inkscape:transform-center-y="-1.2360044"
         transform="rotate(-0.01727901)"
         d="m 81.669521,140.23042 c 10e-7,22.97599 -5.911641,41.60171 -13.204021,41.60171 -7.292381,0 -13.204023,-18.62572 -13.204022,-41.60171 1e-6,-22.97599 14.232529,-43.407963 21.524908,-43.407961 7.292379,0 4.883134,20.431971 4.883135,43.407961 z"
         sodipodi:nodetypes="sssss" /><path
         id="ellipse4"
         style="opacity:1;fill:#ec5d1d;stroke-width:4"
         inkscape:transform-center-x="-19.579307"
         inkscape:transform-center-y="-1.2360063"
         transform="matrix(-0.99999995,-3.0157561e-4,-3.0157561e-4,0.99999995,0,0)"
         d="m -110.0592,137.27856 c 0,22.57526 -5.91164,40.87613 -13.20402,40.87613 -7.29238,0 -13.20402,-18.30087 -13.20402,-40.87613 0,-22.57526 13.87077,-42.682485 21.16315,-42.682487 7.29238,2e-6 5.24489,20.107227 5.24489,42.682487 z"
         sodipodi:nodetypes="sssss" /><path
         id="ellipse5"
         d="m 59.22585,186.39631 c -15.883773,36.93338 -21.060807,4.87025 -21.060807,-0.81654 0,-7.29238 0.53802,-33.82399 23.514007,-33.82399 40.57861,0 41.6017,5.91164 41.6017,13.20402 0,5.68679 -14.944389,9.44866 -30.828164,11.3074 -7.906641,0.92524 -10.081675,2.81613 -13.226736,10.12911 z"
         style="opacity:1;fill:#ec5d1d;fill-opacity:1;stroke-width:4"
         sodipodi:nodetypes="ssssss" /><path
         id="path5"
         d="m 136.48304,185.6728 c 15.88377,36.93338 21.78431,5.95552 21.78431,0.26873 0,-7.29238 -2.70854,-37.07978 -25.68453,-37.07978 -40.578609,0 -41.601699,5.91164 -41.601699,13.20402 0,5.68679 14.944389,9.44866 30.828169,11.3074 7.90664,0.92524 11.52869,4.98665 14.67375,12.29963 z"
         style="opacity:1;fill:#ec5d1d;fill-opacity:1;stroke-width:4"
         sodipodi:nodetypes="ssssss" /><text
         xml:space="preserve"
         style="font-weight:bold;font-stretch:condensed;font-size:3.175px;font-family:Bahnschrift;-inkscape-font-specification:'Bahnschrift Bold Condensed';white-space:pre;inline-size:20.314;opacity:1;fill:#94360c;fill-opacity:1;stroke-width:4"
         x="66.200974"
         y="65.839218"
         id="text6"
         transform="matrix(32.387513,0,0,23.2555,-2067.0017,-1343.0119)"><tspan
           x="66.200974"
           y="65.839218"
           id="tspan1">v</tspan></text></g></g></svg>
